<?xml version="1.0" standalone="no"?>
<!DOCTYPE svg PUBLIC "-//W3C//DTD SVG 20010904//EN"
 "http://www.w3.org/TR/2001/REC-SVG-20010904/DTD/svg10.dtd">
<svg version="1.0" xmlns="http://www.w3.org/2000/svg"
 width="360.000000pt" height="360.000000pt" viewBox="0 0 360.000000 360.000000"
 preserveAspectRatio="xMidYMid meet">
<metadata>
Created by potrace 1.11, written by Peter Selinger 2001-2013
</metadata>
<g transform="translate(0.000000,360.000000) scale(0.100000,-0.100000)"
fill="#000000" stroke="none">
<path d="M1550 3454 c-230 -35 -480 -130 -658 -251 -34 -24 -65 -43 -68 -43
-3 0 -11 -6 -18 -12 -7 -7 -33 -29 -57 -48 -59 -48 -186 -175 -234 -235 -22
-28 -43 -51 -47 -53 -5 -2 -8 -10 -8 -17 0 -7 -3 -15 -8 -17 -15 -6 -112 -167
-155 -259 -55 -115 -100 -250 -129 -389 -19 -89 -23 -137 -23 -315 0 -180 3
-226 23 -323 40 -197 113 -386 209 -542 26 -41 50 -77 53 -80 4 -3 13 -17 21
-31 30 -57 192 -230 289 -309 30 -25 57 -47 60 -50 3 -3 12 -9 21 -15 10 -5
39 -25 65 -44 61 -42 227 -131 246 -131 8 0 40 54 75 128 33 70 109 225 167
344 58 119 106 221 106 226 0 6 3 12 8 14 4 2 18 27 31 56 l24 52 668 0 c402
0 670 4 674 9 6 10 -44 114 -250 516 -129 252 -420 824 -504 990 -26 50 -51
90 -56 89 -11 -1 -72 -121 -435 -856 -138 -280 -256 -509 -263 -509 -35 -3
-287 -3 -287 0 0 7 331 669 338 676 4 4 7 10 7 13 0 19 592 1185 604 1190 18
7 208 -42 265 -68 25 -11 49 -20 53 -20 11 0 155 -75 208 -108 54 -33 190
-141 241 -190 209 -200 361 -488 416 -787 20 -108 17 -410 -5 -515 -21 -99
-56 -214 -87 -285 -47 -111 -54 -125 -62 -125 -4 0 -8 -5 -8 -12 0 -16 -53
-98 -121 -188 -55 -73 -158 -179 -229 -236 -19 -16 -37 -31 -40 -34 -10 -12
-101 -70 -110 -70 -4 0 -10 -4 -12 -9 -3 -9 -180 -101 -193 -101 -3 0 -26 -9
-50 -20 -61 -28 -223 -67 -329 -80 -104 -13 -287 -12 -366 2 -30 5 -66 11 -80
13 -14 2 -45 8 -70 14 -76 18 -76 18 -120 -75 -22 -47 -40 -90 -40 -95 0 -16
118 -53 210 -65 25 -3 65 -10 90 -14 25 -5 117 -8 205 -8 189 0 324 21 495 74
103 32 317 125 330 143 3 4 25 18 50 32 25 13 47 26 50 29 3 3 43 34 90 69
285 217 494 534 590 897 66 248 65 586 -1 834 -27 99 -25 92 -34 115 -4 11
-19 49 -33 85 -32 83 -75 171 -118 238 -19 29 -34 55 -34 57 0 3 -33 47 -72
98 -77 97 -200 225 -264 273 -22 16 -45 34 -51 41 -24 22 -149 102 -223 141
-189 102 -456 180 -631 185 l-74 2 -157 -315 c-86 -173 -157 -318 -157 -323
-1 -4 -13 -26 -28 -50 -14 -23 -26 -43 -25 -44 2 -4 -30 -71 -53 -113 -11 -19
-20 -37 -20 -40 -1 -6 -91 -190 -439 -894 -153 -307 -273 -563 -269 -567 5 -5
129 -10 276 -11 l266 -3 -124 -253 -125 -253 -47 32 c-84 57 -168 131 -254
226 -60 66 -160 215 -207 308 -97 195 -141 368 -149 591 -8 221 23 401 104
599 39 95 127 258 144 263 5 2 9 8 9 14 0 6 18 33 40 61 163 205 369 361 595
451 76 31 176 64 209 70 12 2 48 9 81 16 l61 12 47 100 c26 55 47 106 47 114
0 17 -23 17 -150 -2z m654 -1486 c65 -128 163 -320 217 -425 54 -106 95 -194
91 -194 -14 -3 -852 -4 -852 -1 0 1 4 10 9 20 6 9 57 114 114 232 241 500 291
600 297 600 3 0 59 -105 124 -232z"/>
</g>
</svg>
